<svg xmlns="http://www.w3.org/2000/svg" xmlns:xlink="http://www.w3.org/1999/xlink" width="180" zoomAndPan="magnify" viewBox="0 0 135 135.000003" height="180" preserveAspectRatio="xMidYMid meet" version="1.0"><defs><g/><clipPath id="869e7a6a10"><path d="M 43.820312 50 L 73 50 L 73 91.777344 L 43.820312 91.777344 Z M 43.820312 50 " clip-rule="nonzero"/></clipPath><clipPath id="7af316fd19"><path d="M 61 41.894531 L 89.941406 41.894531 L 89.941406 84 L 61 84 Z M 61 41.894531 " clip-rule="nonzero"/></clipPath></defs><g clip-path="url(#869e7a6a10)"><path fill="#ffffff" d="M 43.84375 91.90625 C 45.167969 89.792969 46.496094 87.675781 47.828125 85.5625 L 49.820312 82.402344 L 51.820312 79.238281 L 55.832031 72.914062 L 59.59375 66.988281 L 54.75 59.878906 L 53.476562 58.007812 C 53.046875 57.386719 52.625 56.761719 52.195312 56.140625 L 49.621094 52.421875 L 48.578125 50.914062 L 62.3125 50.824219 L 62.605469 51.339844 C 63.027344 52.097656 63.441406 52.859375 63.859375 53.621094 L 64.171875 54.191406 L 65.097656 55.914062 L 66.324219 58.210938 L 66.945312 59.394531 C 67.183594 59.035156 67.421875 58.675781 67.660156 58.3125 L 68.390625 57.222656 L 69.128906 56.132812 L 69.867188 55.046875 L 70.613281 53.964844 C 71.113281 53.246094 71.625 52.527344 72.140625 51.816406 C 72.175781 51.757812 72.222656 51.746094 72.285156 51.78125 C 72.347656 51.816406 72.359375 51.863281 72.324219 51.925781 C 71.949219 52.71875 71.5625 53.507812 71.167969 54.289062 L 70.578125 55.464844 L 69.980469 56.636719 L 69.375 57.804688 L 68.765625 58.96875 C 68.355469 59.742188 67.945312 60.515625 67.53125 61.285156 L 66.929688 62.398438 L 66.214844 61.277344 C 65.75 60.542969 65.292969 59.808594 64.832031 59.070312 L 63.460938 56.859375 L 62.785156 55.746094 L 62.445312 55.195312 L 62.109375 54.640625 C 61.765625 54.078125 61.425781 53.515625 61.089844 52.953125 C 60.820312 52.953125 52.605469 52.921875 52.28125 52.914062 L 53.691406 55.15625 C 54.09375 55.792969 54.5 56.425781 54.90625 57.0625 L 56.125 58.96875 L 61.007812 66.59375 L 61.261719 66.988281 L 61.007812 67.359375 L 56.773438 73.535156 L 52.535156 79.707031 L 50.414062 82.789062 L 48.285156 85.871094 C 46.867188 87.925781 45.445312 89.976562 44.019531 92.023438 C 43.980469 92.082031 43.929688 92.089844 43.875 92.054688 C 43.816406 92.015625 43.804688 91.964844 43.84375 91.910156 Z M 43.84375 91.90625 " fill-opacity="1" fill-rule="nonzero"/></g><g clip-path="url(#7af316fd19)"><path fill="#ffffff" d="M 62.582031 79.664062 L 63.171875 78.488281 L 63.773438 77.316406 L 64.375 76.148438 L 64.984375 74.988281 C 65.394531 74.210938 65.804688 73.4375 66.222656 72.667969 L 66.820312 71.554688 L 67.535156 72.675781 C 68.003906 73.410156 68.457031 74.148438 68.917969 74.882812 L 70.289062 77.09375 L 70.96875 78.207031 L 71.308594 78.757812 L 71.644531 79.3125 C 71.984375 79.875 72.320312 80.4375 72.65625 81.003906 C 72.925781 81.003906 81.140625 81.035156 81.464844 81.042969 L 80.058594 78.800781 C 79.65625 78.160156 79.25 77.527344 78.84375 76.890625 L 77.625 74.984375 L 72.746094 67.359375 L 72.492188 66.964844 L 72.746094 66.59375 L 76.976562 60.429688 L 81.21875 54.273438 L 83.335938 51.195312 L 85.46875 48.121094 C 86.882812 46.070312 88.304688 44.027344 89.734375 41.984375 C 89.769531 41.925781 89.816406 41.917969 89.875 41.953125 C 89.933594 41.992188 89.945312 42.039062 89.90625 42.097656 C 88.582031 44.207031 87.253906 46.316406 85.925781 48.425781 L 83.929688 51.585938 L 81.929688 54.742188 L 77.921875 61.054688 L 74.160156 66.964844 L 79 74.074219 L 80.273438 75.945312 C 80.699219 76.566406 81.121094 77.191406 81.554688 77.8125 L 84.128906 81.535156 L 85.171875 83.039062 L 71.433594 83.132812 L 71.144531 82.609375 C 70.71875 81.851562 70.304688 81.089844 69.886719 80.328125 L 69.574219 79.757812 L 69.265625 79.183594 L 68.648438 78.039062 L 67.429688 75.742188 L 66.804688 74.558594 L 66.089844 75.640625 L 65.359375 76.730469 L 64.621094 77.820312 L 63.886719 78.90625 L 63.136719 79.988281 C 62.636719 80.710938 62.128906 81.425781 61.613281 82.136719 C 61.574219 82.1875 61.527344 82.195312 61.472656 82.164062 C 61.417969 82.132812 61.40625 82.085938 61.433594 82.027344 C 61.804688 81.238281 62.1875 80.449219 62.582031 79.664062 Z M 62.582031 79.664062 " fill-opacity="1" fill-rule="nonzero"/></g><path fill="#ffffff" d="M 15.328125 52.960938 L 43.542969 52.960938 C 45.542969 52.960938 47.164062 54.582031 47.164062 56.585938 L 47.164062 77.207031 C 47.164062 79.210938 45.542969 80.832031 43.542969 80.832031 L 15.328125 80.832031 C 13.324219 80.832031 11.703125 79.210938 11.703125 77.207031 L 11.703125 56.585938 C 11.703125 54.582031 13.324219 52.960938 15.328125 52.960938 Z M 15.328125 52.960938 " fill-opacity="1" fill-rule="nonzero"/><g fill="#000000" fill-opacity="1"><g transform="translate(14.964876, 74.279548)"><g><path d="M 7.046875 -12.21875 C 8.640625 -12.21875 9.988281 -11.90625 11.09375 -11.28125 C 12.207031 -10.65625 12.765625 -9.6875 12.765625 -8.375 L 8.578125 -8.375 C 8.578125 -8.8125 8.378906 -9.125 7.984375 -9.3125 C 7.710938 -9.457031 7.375 -9.53125 6.96875 -9.53125 C 5.882812 -9.53125 5.34375 -9.273438 5.34375 -8.765625 C 5.34375 -8.472656 5.53125 -8.265625 5.90625 -8.140625 C 6.28125 -8.023438 6.898438 -7.898438 7.765625 -7.765625 C 8.816406 -7.617188 9.695312 -7.441406 10.40625 -7.234375 C 11.125 -7.023438 11.742188 -6.660156 12.265625 -6.140625 C 12.796875 -5.617188 13.0625 -4.894531 13.0625 -3.96875 C 13.0625 -2.4375 12.488281 -1.347656 11.34375 -0.703125 C 10.207031 -0.0546875 8.71875 0.265625 6.875 0.265625 C 5.820312 0.265625 4.828125 0.117188 3.890625 -0.171875 C 2.953125 -0.460938 2.1875 -0.914062 1.59375 -1.53125 C 1.007812 -2.15625 0.71875 -2.941406 0.71875 -3.890625 L 4.90625 -3.890625 L 4.90625 -3.796875 C 4.925781 -3.285156 5.144531 -2.925781 5.5625 -2.71875 C 5.976562 -2.519531 6.414062 -2.421875 6.875 -2.421875 C 8.132812 -2.421875 8.765625 -2.71875 8.765625 -3.3125 C 8.765625 -3.613281 8.566406 -3.832031 8.171875 -3.96875 C 7.773438 -4.101562 7.132812 -4.242188 6.25 -4.390625 C 5.175781 -4.566406 4.296875 -4.757812 3.609375 -4.96875 C 2.921875 -5.1875 2.320312 -5.546875 1.8125 -6.046875 C 1.300781 -6.554688 1.046875 -7.265625 1.046875 -8.171875 C 1.046875 -9.640625 1.597656 -10.679688 2.703125 -11.296875 C 3.816406 -11.910156 5.265625 -12.21875 7.046875 -12.21875 Z M 7.046875 -12.21875 "/></g></g></g><g fill="#000000" fill-opacity="1"><g transform="translate(28.800035, 74.279548)"><g><path d="M 5.859375 -10.703125 C 6.347656 -11.191406 6.914062 -11.566406 7.5625 -11.828125 C 8.207031 -12.085938 8.882812 -12.21875 9.59375 -12.21875 C 10.988281 -12.21875 12.03125 -11.832031 12.71875 -11.0625 C 13.414062 -10.300781 13.765625 -9.195312 13.765625 -7.75 L 13.765625 0 L 9.265625 0 L 9.265625 -7.203125 C 9.265625 -7.710938 9.128906 -8.117188 8.859375 -8.421875 C 8.597656 -8.734375 8.226562 -8.890625 7.75 -8.890625 C 7.1875 -8.890625 6.726562 -8.707031 6.375 -8.34375 C 6.03125 -7.988281 5.859375 -7.546875 5.859375 -7.015625 L 5.859375 0 L 1.359375 0 L 1.359375 -16.421875 L 5.859375 -16.421875 Z M 5.859375 -10.703125 "/></g></g></g><g fill="#ffffff" fill-opacity="1"><g transform="translate(82.033381, 76.015506)"><g><path d="M 2.015625 -18.703125 L 18.1875 -18.703125 L 18.1875 -14.21875 L 8.015625 -14.21875 L 8.015625 -11.640625 L 16.71875 -11.640625 L 16.71875 -7.34375 L 8.015625 -7.34375 L 8.015625 -4.484375 L 18.375 -4.484375 L 18.375 0 L 2.015625 0 Z M 2.015625 -18.703125 "/></g></g></g><g fill="#ffffff" fill-opacity="1"><g transform="translate(101.665531, 76.015506)"><g><path d="M 10.921875 -19.03125 C 13.703125 -19.03125 15.894531 -18.335938 17.5 -16.953125 C 19.113281 -15.566406 19.921875 -13.585938 19.921875 -11.015625 L 14.1875 -11.015625 C 14.1875 -12.097656 13.898438 -12.957031 13.328125 -13.59375 C 12.765625 -14.226562 11.957031 -14.546875 10.90625 -14.546875 C 9.6875 -14.546875 8.789062 -14.164062 8.21875 -13.40625 C 7.65625 -12.644531 7.375 -11.582031 7.375 -10.21875 L 7.375 -8.484375 C 7.375 -7.140625 7.65625 -6.082031 8.21875 -5.3125 C 8.789062 -4.539062 9.664062 -4.15625 10.84375 -4.15625 C 12.007812 -4.15625 12.890625 -4.453125 13.484375 -5.046875 C 14.078125 -5.648438 14.375 -6.492188 14.375 -7.578125 L 19.921875 -7.578125 C 19.921875 -5.023438 19.132812 -3.066406 17.5625 -1.703125 C 16 -0.347656 13.785156 0.328125 10.921875 0.328125 C 7.734375 0.328125 5.316406 -0.484375 3.671875 -2.109375 C 2.035156 -3.742188 1.21875 -6.160156 1.21875 -9.359375 C 1.21875 -12.546875 2.035156 -14.953125 3.671875 -16.578125 C 5.316406 -18.210938 7.734375 -19.03125 10.921875 -19.03125 Z M 10.921875 -19.03125 "/></g></g></g></svg>