<svg xmlns="http://www.w3.org/2000/svg" xmlns:xlink="http://www.w3.org/1999/xlink" width="180" zoomAndPan="magnify" viewBox="0 0 135 135.000003" height="180" preserveAspectRatio="xMidYMid meet" version="1.0"><defs><g/><clipPath id="609d168583"><path d="M 43.820312 50 L 73 50 L 73 91.777344 L 43.820312 91.777344 Z M 43.820312 50 " clip-rule="nonzero"/></clipPath><clipPath id="29eca89cf5"><path d="M 61 41.894531 L 89.941406 41.894531 L 89.941406 83 L 61 83 Z M 61 41.894531 " clip-rule="nonzero"/></clipPath></defs><g clip-path="url(#609d168583)"><path fill="#000000" d="M 43.808594 91.582031 C 45.136719 89.480469 46.464844 87.378906 47.792969 85.28125 L 49.789062 82.136719 L 51.792969 78.996094 L 55.804688 72.710938 L 59.570312 66.828125 L 54.722656 59.761719 L 53.445312 57.90625 C 53.019531 57.285156 52.597656 56.667969 52.167969 56.050781 L 49.589844 52.351562 L 48.546875 50.855469 L 62.292969 50.765625 L 62.582031 51.28125 C 63.007812 52.03125 63.421875 52.789062 63.839844 53.546875 L 64.152344 54.113281 L 64.460938 54.683594 L 65.078125 55.820312 L 66.304688 58.105469 L 66.929688 59.28125 C 67.167969 58.925781 67.40625 58.566406 67.644531 58.207031 L 68.375 57.121094 L 69.113281 56.039062 L 69.851562 54.960938 L 70.597656 53.886719 C 71.101562 53.171875 71.609375 52.460938 72.125 51.753906 C 72.160156 51.691406 72.210938 51.679688 72.273438 51.714844 C 72.332031 51.75 72.347656 51.800781 72.308594 51.859375 C 71.933594 52.648438 71.550781 53.433594 71.15625 54.210938 L 70.5625 55.378906 L 69.964844 56.539062 L 69.359375 57.699219 L 68.75 58.855469 C 68.339844 59.625 67.929688 60.394531 67.511719 61.160156 L 66.914062 62.265625 L 66.199219 61.152344 C 65.730469 60.421875 65.273438 59.691406 64.8125 58.960938 L 63.441406 56.761719 L 62.761719 55.65625 L 62.421875 55.109375 L 62.085938 54.558594 C 61.746094 54 61.40625 53.441406 61.066406 52.878906 C 60.796875 52.878906 52.578125 52.847656 52.253906 52.84375 L 53.664062 55.070312 C 54.066406 55.703125 54.476562 56.332031 54.878906 56.964844 L 56.101562 58.859375 L 60.984375 66.433594 L 61.238281 66.828125 L 60.984375 67.195312 L 56.75 73.332031 L 52.503906 79.460938 L 50.382812 82.523438 L 48.253906 85.585938 C 46.835938 87.628906 45.414062 89.667969 43.984375 91.699219 C 43.945312 91.757812 43.898438 91.765625 43.839844 91.726562 C 43.78125 91.691406 43.769531 91.640625 43.808594 91.585938 Z M 43.808594 91.582031 " fill-opacity="1" fill-rule="nonzero"/></g><g clip-path="url(#29eca89cf5)"><path fill="#000000" d="M 62.5625 79.417969 L 63.152344 78.25 L 63.75 77.085938 L 64.355469 75.929688 L 64.96875 74.773438 C 65.378906 74.003906 65.785156 73.234375 66.203125 72.46875 L 66.804688 71.363281 L 67.519531 72.476562 C 67.984375 73.203125 68.441406 73.9375 68.902344 74.667969 L 70.273438 76.867188 L 71.292969 78.519531 L 71.628906 79.070312 C 71.96875 79.628906 72.308594 80.1875 72.644531 80.75 C 72.914062 80.75 81.132812 80.78125 81.460938 80.785156 L 80.050781 78.558594 C 79.648438 77.925781 79.242188 77.296875 78.835938 76.664062 L 77.617188 74.769531 L 72.730469 67.195312 L 72.476562 66.800781 L 72.730469 66.433594 L 76.964844 60.3125 L 81.210938 54.191406 L 83.332031 51.136719 L 85.464844 48.082031 C 86.878906 46.046875 88.304688 44.011719 89.734375 41.980469 C 89.769531 41.925781 89.816406 41.917969 89.875 41.953125 C 89.933594 41.988281 89.945312 42.039062 89.90625 42.097656 C 88.578125 44.191406 87.25 46.289062 85.921875 48.382812 L 83.925781 51.523438 L 81.921875 54.660156 L 77.910156 60.929688 L 74.148438 66.800781 L 78.992188 73.867188 L 80.265625 75.726562 C 80.695312 76.34375 81.117188 76.964844 81.546875 77.578125 L 84.125 81.277344 L 85.167969 82.773438 L 71.417969 82.863281 L 71.128906 82.34375 C 70.707031 81.59375 70.289062 80.835938 69.875 80.078125 L 69.558594 79.511719 L 69.25 78.941406 L 68.628906 77.804688 L 67.410156 75.523438 L 66.789062 74.347656 L 66.070312 75.421875 L 65.339844 76.507812 L 64.601562 77.589844 L 63.867188 78.667969 L 63.117188 79.742188 C 62.617188 80.457031 62.109375 81.167969 61.589844 81.875 C 61.554688 81.925781 61.507812 81.933594 61.453125 81.902344 C 61.398438 81.871094 61.382812 81.824219 61.410156 81.769531 C 61.78125 80.980469 62.167969 80.199219 62.5625 79.417969 Z M 62.5625 79.417969 " fill-opacity="1" fill-rule="nonzero"/></g><path fill="#000000" d="M 15.328125 52.960938 L 43.542969 52.960938 C 45.542969 52.960938 47.164062 54.582031 47.164062 56.585938 L 47.164062 77.207031 C 47.164062 79.210938 45.542969 80.832031 43.542969 80.832031 L 15.328125 80.832031 C 13.324219 80.832031 11.703125 79.210938 11.703125 77.207031 L 11.703125 56.585938 C 11.703125 54.582031 13.324219 52.960938 15.328125 52.960938 Z M 15.328125 52.960938 " fill-opacity="1" fill-rule="nonzero"/><g fill="#ffffff" fill-opacity="1"><g transform="translate(14.964876, 74.279548)"><g><path d="M 7.046875 -12.21875 C 8.640625 -12.21875 9.988281 -11.90625 11.09375 -11.28125 C 12.207031 -10.65625 12.765625 -9.6875 12.765625 -8.375 L 8.578125 -8.375 C 8.578125 -8.8125 8.378906 -9.125 7.984375 -9.3125 C 7.710938 -9.457031 7.375 -9.53125 6.96875 -9.53125 C 5.882812 -9.53125 5.34375 -9.273438 5.34375 -8.765625 C 5.34375 -8.472656 5.53125 -8.265625 5.90625 -8.140625 C 6.28125 -8.023438 6.898438 -7.898438 7.765625 -7.765625 C 8.816406 -7.617188 9.695312 -7.441406 10.40625 -7.234375 C 11.125 -7.023438 11.742188 -6.660156 12.265625 -6.140625 C 12.796875 -5.617188 13.0625 -4.894531 13.0625 -3.96875 C 13.0625 -2.4375 12.488281 -1.347656 11.34375 -0.703125 C 10.207031 -0.0546875 8.71875 0.265625 6.875 0.265625 C 5.820312 0.265625 4.828125 0.117188 3.890625 -0.171875 C 2.953125 -0.460938 2.1875 -0.914062 1.59375 -1.53125 C 1.007812 -2.15625 0.71875 -2.941406 0.71875 -3.890625 L 4.90625 -3.890625 L 4.90625 -3.796875 C 4.925781 -3.285156 5.144531 -2.925781 5.5625 -2.71875 C 5.976562 -2.519531 6.414062 -2.421875 6.875 -2.421875 C 8.132812 -2.421875 8.765625 -2.71875 8.765625 -3.3125 C 8.765625 -3.613281 8.566406 -3.832031 8.171875 -3.96875 C 7.773438 -4.101562 7.132812 -4.242188 6.25 -4.390625 C 5.175781 -4.566406 4.296875 -4.757812 3.609375 -4.96875 C 2.921875 -5.1875 2.320312 -5.546875 1.8125 -6.046875 C 1.300781 -6.554688 1.046875 -7.265625 1.046875 -8.171875 C 1.046875 -9.640625 1.597656 -10.679688 2.703125 -11.296875 C 3.816406 -11.910156 5.265625 -12.21875 7.046875 -12.21875 Z M 7.046875 -12.21875 "/></g></g></g><g fill="#ffffff" fill-opacity="1"><g transform="translate(28.800035, 74.279548)"><g><path d="M 5.859375 -10.703125 C 6.347656 -11.191406 6.914062 -11.566406 7.5625 -11.828125 C 8.207031 -12.085938 8.882812 -12.21875 9.59375 -12.21875 C 10.988281 -12.21875 12.03125 -11.832031 12.71875 -11.0625 C 13.414062 -10.300781 13.765625 -9.195312 13.765625 -7.75 L 13.765625 0 L 9.265625 0 L 9.265625 -7.203125 C 9.265625 -7.710938 9.128906 -8.117188 8.859375 -8.421875 C 8.597656 -8.734375 8.226562 -8.890625 7.75 -8.890625 C 7.1875 -8.890625 6.726562 -8.707031 6.375 -8.34375 C 6.03125 -7.988281 5.859375 -7.546875 5.859375 -7.015625 L 5.859375 0 L 1.359375 0 L 1.359375 -16.421875 L 5.859375 -16.421875 Z M 5.859375 -10.703125 "/></g></g></g><g fill="#000000" fill-opacity="1"><g transform="translate(82.033381, 76.015506)"><g><path d="M 2.015625 -18.703125 L 18.1875 -18.703125 L 18.1875 -14.21875 L 8.015625 -14.21875 L 8.015625 -11.640625 L 16.71875 -11.640625 L 16.71875 -7.34375 L 8.015625 -7.34375 L 8.015625 -4.484375 L 18.375 -4.484375 L 18.375 0 L 2.015625 0 Z M 2.015625 -18.703125 "/></g></g></g><g fill="#000000" fill-opacity="1"><g transform="translate(101.665531, 76.015506)"><g><path d="M 10.921875 -19.03125 C 13.703125 -19.03125 15.894531 -18.335938 17.5 -16.953125 C 19.113281 -15.566406 19.921875 -13.585938 19.921875 -11.015625 L 14.1875 -11.015625 C 14.1875 -12.097656 13.898438 -12.957031 13.328125 -13.59375 C 12.765625 -14.226562 11.957031 -14.546875 10.90625 -14.546875 C 9.6875 -14.546875 8.789062 -14.164062 8.21875 -13.40625 C 7.65625 -12.644531 7.375 -11.582031 7.375 -10.21875 L 7.375 -8.484375 C 7.375 -7.140625 7.65625 -6.082031 8.21875 -5.3125 C 8.789062 -4.539062 9.664062 -4.15625 10.84375 -4.15625 C 12.007812 -4.15625 12.890625 -4.453125 13.484375 -5.046875 C 14.078125 -5.648438 14.375 -6.492188 14.375 -7.578125 L 19.921875 -7.578125 C 19.921875 -5.023438 19.132812 -3.066406 17.5625 -1.703125 C 16 -0.347656 13.785156 0.328125 10.921875 0.328125 C 7.734375 0.328125 5.316406 -0.484375 3.671875 -2.109375 C 2.035156 -3.742188 1.21875 -6.160156 1.21875 -9.359375 C 1.21875 -12.546875 2.035156 -14.953125 3.671875 -16.578125 C 5.316406 -18.210938 7.734375 -19.03125 10.921875 -19.03125 Z M 10.921875 -19.03125 "/></g></g></g></svg>